<?xml version="1.0" encoding="UTF-8"?>
<svg xmlns="http://www.w3.org/2000/svg" version="1.1" viewBox="0 0 800 800">
  <defs>
    <style>
      .cls-1 {
        fill: #1c274c;
      }

      .cls-2 {
        stroke-width: 60px;
      }

      .cls-2, .cls-3 {
        fill: none;
        stroke: #1c274c;
        stroke-linecap: round;
        stroke-miterlimit: 133.3;
      }

      .cls-3 {
        stroke-width: 50px;
      }
    </style>
  </defs>
  <!-- Generator: Adobe Illustrator 28.7.5, SVG Export Plug-In . SVG Version: 1.2.0 Build 176)  -->
  <g>
    <g id="Layer_1">
      <path class="cls-3" d="M707.4,266.7c-23-72.8-59.7-112.2-104.3-128-12.7-4.5-26.3-5.4-39.8-5.4h-20.4c-29.3,0-57.8,9.1-81.7,26l-16.7,11.8c-13,9.2-28.5,14.1-44.4,14.1s-31.4-4.9-44.4-14.1l-16.7-11.8c-23.9-16.9-52.4-26-81.7-26h-20.4c-13.5,0-27.1.8-39.8,5.4-79.4,28.2-134.1,131.1-130.1,364.7.8,47.1,11.8,99.1,54.3,119.4,13.2,6.3,28.7,10.5,46.4,10.5s38-6,51-14.6c30.5-20,52.8-53.3,85.1-70.1,19.5-10.1,41.1-15.4,63-15.4h66.6c21.9,0,43.5,5.3,63,15.4,32.3,16.8,54.7,50.1,85.1,70.1,13,8.5,29.8,14.6,51,14.6s33.2-4.2,46.4-10.5c42.5-20.3,53.5-72.3,54.3-119.4.6-37.8-.3-72.2-2.5-103.4"/>
      <path class="cls-2" d="M252.5,239v161M172,319.5h161"/>
      <path class="cls-1" d="M683,341.7c0,27.6-22.4,50-50,50s-50-22.4-50-50,22.4-50,50-50,50,22.4,50,50Z"/>
      <path class="cls-1" d="M532,341.7c0,27.6-22.4,50-50,50s-50-22.4-50-50,22.4-50,50-50,50,22.4,50,50Z"/>
      <path class="cls-1" d="M558.3,200c27.6,0,50,22.4,50,50s-22.4,50-50,50c-27.6,0-50-22.4-50-50,0-27.6,22.4-50,50-50Z"/>
      <path class="cls-1" d="M558.3,380c27.6,0,50,22.4,50,50s-22.4,50-50,50-50-22.4-50-50,22.4-50,50-50Z"/>
    </g>
  </g>
</svg>